# xmcd
#
# Track frame offsets:
#	150
#	29377
#	48726
#	77769
#	104236
#	129142
#	153245
#	181633
#	204051
#	231806
#	255161
#	287248
#
# Disc length: 4212 seconds
#
# Revision: 1
# Processed by: cddbd v1.5.2PL0 Copyright (c) Steve Scherf et al.
# Submitted via: audiograbber 1.81.03
#
DISCID=9410720c
DTITLE=Manu Katché - Playground
DYEAR=2007
DGENRE=Jazz
TTITLE0=Lo
TTITLE1=Pieces of Emotions
TTITLE2=Song for her
TTITLE3=So Groovy
TTITLE4=Morning Joy
TTITLE5=Motion
TTITLE6=Project 58
TTITLE7=Snapshot
TTITLE8=Possible Thought
TTITLE9=Inside Game
TTITLE10=Clubbing
TTITLE11=Song for her (var.)
EXTD=YEAR: 2007
EXTT0=
EXTT1=
EXTT2=
EXTT3=
EXTT4=
EXTT5=
EXTT6=
EXTT7=
EXTT8=
EXTT9=
EXTT10=
EXTT11=
PLAYORDER=
